<?xml version="1.0" encoding="UTF-8"?>
<svg width="128" height="128" viewBox="0 0 128 128" fill="none" xmlns="http://www.w3.org/2000/svg" role="img" aria-label="VetCare">
  <defs>
    <linearGradient id="g1" x1="0" y1="0" x2="1" y2="1">
      <stop offset="0" stop-color="#B8E1DD"/>
      <stop offset="1" stop-color="#E6D9FF"/>
    </linearGradient>
    <linearGradient id="g2" x1="0" y1="0" x2="1" y2="1">
      <stop offset="0" stop-color="#FFD6BA"/>
      <stop offset="1" stop-color="#CFEAFF"/>
    </linearGradient>
  </defs>
  <rect x="8" y="8" width="112" height="112" rx="24" fill="url(#g1)"/>
  <g filter="url(#shadow)">
    <path d="M64 76c5.4-4 14.8-3.5 18.6 1.7 3.8 5.1.6 12.4-6.3 15.2-5.3 2.2-12.5 2.2-17.8 0-6.9-2.8-10.1-10.1-6.3-15.2 3.8-5.1 13.2-5.6 18.6-1.7Z" fill="#62C2B0"/>
    <circle cx="44" cy="56" r="6.5" fill="#62C2B0"/>
    <circle cx="54" cy="44" r="6.5" fill="#62C2B0"/>
    <circle cx="74" cy="45" r="6.5" fill="#62C2B0"/>
    <circle cx="84" cy="58" r="6.5" fill="#62C2B0"/>
  </g>
  <g>
    <circle cx="100" cy="28" r="16" fill="url(#g2)"/>
    <path d="M99 22h2a1 1 0 0 1 1 1v4h4a1 1 0 0 1 1 1v2a1 1 0 0 1-1 1h-4v4a1 1 0 0 1-1 1h-2a1 1 0 0 1-1-1v-4h-4a1 1 0 0 1-1-1v-2a1 1 0 0 1 1-1h4v-4a1 1 0 0 1 1-1Z" fill="#2F6F6B"/>
  </g>
  <defs>
    <filter id="shadow" x="0" y="0" width="200%" height="200%">
      <feOffset dy="2"/>
      <feGaussianBlur stdDeviation="3" result="b"/>
      <feColorMatrix type="matrix" values="0 0 0 0 0  0 0 0 0 0  0 0 0 0 0  0 0 0 .2 0"/>
      <feBlend in2="b" mode="normal"/>
    </filter>
  </defs>
</svg>
